<mxfile host="app.diagrams.net" modified="2023-08-10T11:08:50.554Z" agent="Mozilla/5.0 (Windows NT 10.0; Win64; x64) AppleWebKit/537.36 (KHTML, like Gecko) Chrome/115.0.0.0 Safari/537.36" etag="TGUDMNSHt7gAj75vwYzk" version="21.6.7" type="github">
  <diagram name="Page-1" id="OuorS9jKov36Hd_2crpW">
    <mxGraphModel dx="743" dy="390" grid="1" gridSize="10" guides="1" tooltips="1" connect="1" arrows="1" fold="1" page="1" pageScale="1" pageWidth="850" pageHeight="1100" math="0" shadow="0">
      <root>
        <mxCell id="0" />
        <mxCell id="1" parent="0" />
        <mxCell id="ptTr35JplMpbKP84stht-1" value="" style="edgeStyle=orthogonalEdgeStyle;rounded=0;orthogonalLoop=1;jettySize=auto;html=1;" edge="1" parent="1" source="ptTr35JplMpbKP84stht-2" target="ptTr35JplMpbKP84stht-4">
          <mxGeometry relative="1" as="geometry" />
        </mxCell>
        <mxCell id="ptTr35JplMpbKP84stht-2" value="BAC" style="rounded=1;whiteSpace=wrap;html=1;fontSize=12;glass=0;strokeWidth=1;shadow=0;" vertex="1" parent="1">
          <mxGeometry x="155" y="40" width="120" height="40" as="geometry" />
        </mxCell>
        <mxCell id="ptTr35JplMpbKP84stht-3" value="" style="edgeStyle=orthogonalEdgeStyle;rounded=0;orthogonalLoop=1;jettySize=auto;html=1;" edge="1" parent="1" source="ptTr35JplMpbKP84stht-4" target="ptTr35JplMpbKP84stht-6">
          <mxGeometry relative="1" as="geometry" />
        </mxCell>
        <mxCell id="ptTr35JplMpbKP84stht-4" value="What is your name?" style="rounded=1;whiteSpace=wrap;html=1;fontSize=12;glass=0;strokeWidth=1;shadow=0;" vertex="1" parent="1">
          <mxGeometry x="330" y="40" width="120" height="40" as="geometry" />
        </mxCell>
        <mxCell id="ptTr35JplMpbKP84stht-5" value="" style="edgeStyle=orthogonalEdgeStyle;rounded=0;orthogonalLoop=1;jettySize=auto;html=1;" edge="1" parent="1" source="ptTr35JplMpbKP84stht-6" target="ptTr35JplMpbKP84stht-8">
          <mxGeometry relative="1" as="geometry" />
        </mxCell>
        <mxCell id="ptTr35JplMpbKP84stht-6" value="What is your email?" style="rounded=1;whiteSpace=wrap;html=1;fontSize=12;glass=0;strokeWidth=1;shadow=0;" vertex="1" parent="1">
          <mxGeometry x="490" y="40" width="120" height="40" as="geometry" />
        </mxCell>
        <mxCell id="ptTr35JplMpbKP84stht-7" value="" style="edgeStyle=orthogonalEdgeStyle;rounded=0;orthogonalLoop=1;jettySize=auto;html=1;" edge="1" parent="1" source="ptTr35JplMpbKP84stht-8" target="ptTr35JplMpbKP84stht-10">
          <mxGeometry relative="1" as="geometry" />
        </mxCell>
        <mxCell id="ptTr35JplMpbKP84stht-8" value="What is your Phone No?" style="rounded=1;whiteSpace=wrap;html=1;fontSize=12;glass=0;strokeWidth=1;shadow=0;" vertex="1" parent="1">
          <mxGeometry x="650" y="40" width="120" height="40" as="geometry" />
        </mxCell>
        <mxCell id="ptTr35JplMpbKP84stht-9" value="" style="edgeStyle=orthogonalEdgeStyle;rounded=0;orthogonalLoop=1;jettySize=auto;html=1;" edge="1" parent="1" source="ptTr35JplMpbKP84stht-10" target="ptTr35JplMpbKP84stht-12">
          <mxGeometry relative="1" as="geometry" />
        </mxCell>
        <mxCell id="ptTr35JplMpbKP84stht-10" value="What is your weight in KG?" style="rounded=1;whiteSpace=wrap;html=1;fontSize=12;glass=0;strokeWidth=1;shadow=0;" vertex="1" parent="1">
          <mxGeometry x="650" y="110" width="120" height="40" as="geometry" />
        </mxCell>
        <mxCell id="ptTr35JplMpbKP84stht-11" value="" style="edgeStyle=orthogonalEdgeStyle;rounded=0;orthogonalLoop=1;jettySize=auto;html=1;" edge="1" parent="1" source="ptTr35JplMpbKP84stht-12" target="ptTr35JplMpbKP84stht-14">
          <mxGeometry relative="1" as="geometry" />
        </mxCell>
        <mxCell id="ptTr35JplMpbKP84stht-12" value="What is the time since first drink? (approx hrs from drink start til now)" style="rounded=1;whiteSpace=wrap;html=1;fontSize=12;glass=0;strokeWidth=1;shadow=0;" vertex="1" parent="1">
          <mxGeometry x="485" y="100" width="130" height="60" as="geometry" />
        </mxCell>
        <mxCell id="ptTr35JplMpbKP84stht-13" value="" style="edgeStyle=orthogonalEdgeStyle;rounded=0;orthogonalLoop=1;jettySize=auto;html=1;" edge="1" parent="1" source="ptTr35JplMpbKP84stht-14" target="ptTr35JplMpbKP84stht-18">
          <mxGeometry relative="1" as="geometry" />
        </mxCell>
        <mxCell id="ptTr35JplMpbKP84stht-14" value="What is the amount of drink you consume?" style="rounded=1;whiteSpace=wrap;html=1;fontSize=12;glass=0;strokeWidth=1;shadow=0;" vertex="1" parent="1">
          <mxGeometry x="320" y="100" width="130" height="60" as="geometry" />
        </mxCell>
        <mxCell id="ptTr35JplMpbKP84stht-17" value="" style="edgeStyle=orthogonalEdgeStyle;rounded=0;orthogonalLoop=1;jettySize=auto;html=1;" edge="1" parent="1" source="ptTr35JplMpbKP84stht-18" target="ptTr35JplMpbKP84stht-51">
          <mxGeometry relative="1" as="geometry" />
        </mxCell>
        <mxCell id="ptTr35JplMpbKP84stht-18" value="Show Result" style="rounded=1;whiteSpace=wrap;html=1;fontSize=12;glass=0;strokeWidth=1;shadow=0;" vertex="1" parent="1">
          <mxGeometry x="320" y="190" width="130" height="60" as="geometry" />
        </mxCell>
        <mxCell id="ptTr35JplMpbKP84stht-70" value="" style="edgeStyle=orthogonalEdgeStyle;rounded=0;orthogonalLoop=1;jettySize=auto;html=1;" edge="1" parent="1" source="ptTr35JplMpbKP84stht-51" target="ptTr35JplMpbKP84stht-69">
          <mxGeometry relative="1" as="geometry" />
        </mxCell>
        <mxCell id="ptTr35JplMpbKP84stht-76" value="Yes - Frequent Drinker" style="edgeLabel;html=1;align=center;verticalAlign=middle;resizable=0;points=[];" vertex="1" connectable="0" parent="ptTr35JplMpbKP84stht-70">
          <mxGeometry x="0.2048" y="1" relative="1" as="geometry">
            <mxPoint x="20" as="offset" />
          </mxGeometry>
        </mxCell>
        <mxCell id="ptTr35JplMpbKP84stht-72" value="" style="edgeStyle=orthogonalEdgeStyle;rounded=0;orthogonalLoop=1;jettySize=auto;html=1;" edge="1" parent="1" source="ptTr35JplMpbKP84stht-51" target="ptTr35JplMpbKP84stht-71">
          <mxGeometry relative="1" as="geometry" />
        </mxCell>
        <mxCell id="ptTr35JplMpbKP84stht-75" value="NO" style="edgeLabel;html=1;align=center;verticalAlign=middle;resizable=0;points=[];" vertex="1" connectable="0" parent="ptTr35JplMpbKP84stht-72">
          <mxGeometry x="-0.0697" y="-1" relative="1" as="geometry">
            <mxPoint as="offset" />
          </mxGeometry>
        </mxCell>
        <mxCell id="ptTr35JplMpbKP84stht-80" value="Yes - Heavy Drinker" style="edgeLabel;html=1;align=center;verticalAlign=middle;resizable=0;points=[];" vertex="1" connectable="0" parent="ptTr35JplMpbKP84stht-72">
          <mxGeometry x="-0.1492" y="-3" relative="1" as="geometry">
            <mxPoint as="offset" />
          </mxGeometry>
        </mxCell>
        <mxCell id="ptTr35JplMpbKP84stht-74" value="" style="edgeStyle=orthogonalEdgeStyle;rounded=0;orthogonalLoop=1;jettySize=auto;html=1;" edge="1" parent="1" source="ptTr35JplMpbKP84stht-51" target="ptTr35JplMpbKP84stht-73">
          <mxGeometry relative="1" as="geometry" />
        </mxCell>
        <mxCell id="ptTr35JplMpbKP84stht-77" value="Yes - social Drinker" style="edgeLabel;html=1;align=center;verticalAlign=middle;resizable=0;points=[];" vertex="1" connectable="0" parent="ptTr35JplMpbKP84stht-74">
          <mxGeometry x="-0.2143" y="2" relative="1" as="geometry">
            <mxPoint as="offset" />
          </mxGeometry>
        </mxCell>
        <mxCell id="ptTr35JplMpbKP84stht-95" style="edgeStyle=orthogonalEdgeStyle;rounded=0;orthogonalLoop=1;jettySize=auto;html=1;exitX=1;exitY=0;exitDx=0;exitDy=0;" edge="1" parent="1" source="ptTr35JplMpbKP84stht-51" target="ptTr35JplMpbKP84stht-89">
          <mxGeometry relative="1" as="geometry">
            <Array as="points">
              <mxPoint x="415" y="270" />
              <mxPoint x="770" y="270" />
              <mxPoint x="770" y="810" />
              <mxPoint x="385" y="810" />
            </Array>
          </mxGeometry>
        </mxCell>
        <mxCell id="ptTr35JplMpbKP84stht-51" value="Do you&lt;br&gt;&amp;nbsp;want to Continue?" style="rhombus;whiteSpace=wrap;html=1;rounded=1;glass=0;strokeWidth=1;shadow=0;" vertex="1" parent="1">
          <mxGeometry x="325" y="280" width="120" height="110" as="geometry" />
        </mxCell>
        <mxCell id="ptTr35JplMpbKP84stht-86" style="edgeStyle=orthogonalEdgeStyle;rounded=0;orthogonalLoop=1;jettySize=auto;html=1;entryX=0;entryY=0;entryDx=0;entryDy=0;" edge="1" parent="1" source="ptTr35JplMpbKP84stht-69" target="ptTr35JplMpbKP84stht-81">
          <mxGeometry relative="1" as="geometry">
            <Array as="points">
              <mxPoint x="120" y="560" />
            </Array>
          </mxGeometry>
        </mxCell>
        <mxCell id="ptTr35JplMpbKP84stht-69" value="Frequent Drinker" style="whiteSpace=wrap;html=1;rounded=1;glass=0;strokeWidth=1;shadow=0;" vertex="1" parent="1">
          <mxGeometry x="60" y="305" width="120" height="60" as="geometry" />
        </mxCell>
        <mxCell id="ptTr35JplMpbKP84stht-82" value="" style="edgeStyle=orthogonalEdgeStyle;rounded=0;orthogonalLoop=1;jettySize=auto;html=1;" edge="1" parent="1" source="ptTr35JplMpbKP84stht-71" target="ptTr35JplMpbKP84stht-81">
          <mxGeometry relative="1" as="geometry" />
        </mxCell>
        <mxCell id="ptTr35JplMpbKP84stht-71" value="Heavy Drinker" style="whiteSpace=wrap;html=1;rounded=1;glass=0;strokeWidth=1;shadow=0;" vertex="1" parent="1">
          <mxGeometry x="325" y="440" width="120" height="60" as="geometry" />
        </mxCell>
        <mxCell id="ptTr35JplMpbKP84stht-85" style="edgeStyle=orthogonalEdgeStyle;rounded=0;orthogonalLoop=1;jettySize=auto;html=1;entryX=1;entryY=0;entryDx=0;entryDy=0;" edge="1" parent="1" source="ptTr35JplMpbKP84stht-73" target="ptTr35JplMpbKP84stht-81">
          <mxGeometry relative="1" as="geometry">
            <Array as="points">
              <mxPoint x="660" y="560" />
            </Array>
          </mxGeometry>
        </mxCell>
        <mxCell id="ptTr35JplMpbKP84stht-73" value="Social Drinker" style="whiteSpace=wrap;html=1;rounded=1;glass=0;strokeWidth=1;shadow=0;" vertex="1" parent="1">
          <mxGeometry x="600" y="305" width="120" height="60" as="geometry" />
        </mxCell>
        <mxCell id="ptTr35JplMpbKP84stht-88" value="" style="edgeStyle=orthogonalEdgeStyle;rounded=0;orthogonalLoop=1;jettySize=auto;html=1;" edge="1" parent="1" source="ptTr35JplMpbKP84stht-81" target="ptTr35JplMpbKP84stht-87">
          <mxGeometry relative="1" as="geometry" />
        </mxCell>
        <mxCell id="ptTr35JplMpbKP84stht-93" value="Book a Cab" style="edgeLabel;html=1;align=center;verticalAlign=middle;resizable=0;points=[];" vertex="1" connectable="0" parent="ptTr35JplMpbKP84stht-88">
          <mxGeometry x="0.3373" y="1" relative="1" as="geometry">
            <mxPoint as="offset" />
          </mxGeometry>
        </mxCell>
        <mxCell id="ptTr35JplMpbKP84stht-90" value="" style="edgeStyle=orthogonalEdgeStyle;rounded=0;orthogonalLoop=1;jettySize=auto;html=1;" edge="1" parent="1" source="ptTr35JplMpbKP84stht-81" target="ptTr35JplMpbKP84stht-89">
          <mxGeometry relative="1" as="geometry" />
        </mxCell>
        <mxCell id="ptTr35JplMpbKP84stht-94" value="End Conversation" style="edgeLabel;html=1;align=center;verticalAlign=middle;resizable=0;points=[];" vertex="1" connectable="0" parent="ptTr35JplMpbKP84stht-90">
          <mxGeometry x="-0.5168" y="1" relative="1" as="geometry">
            <mxPoint as="offset" />
          </mxGeometry>
        </mxCell>
        <mxCell id="ptTr35JplMpbKP84stht-92" value="" style="edgeStyle=orthogonalEdgeStyle;rounded=0;orthogonalLoop=1;jettySize=auto;html=1;" edge="1" parent="1" source="ptTr35JplMpbKP84stht-81" target="ptTr35JplMpbKP84stht-91">
          <mxGeometry relative="1" as="geometry" />
        </mxCell>
        <mxCell id="ptTr35JplMpbKP84stht-81" value="ACTION" style="rhombus;whiteSpace=wrap;html=1;rounded=1;glass=0;strokeWidth=1;shadow=0;" vertex="1" parent="1">
          <mxGeometry x="345" y="540" width="80" height="80" as="geometry" />
        </mxCell>
        <mxCell id="ptTr35JplMpbKP84stht-87" value="Cab Booking Message" style="whiteSpace=wrap;html=1;rounded=1;glass=0;strokeWidth=1;shadow=0;" vertex="1" parent="1">
          <mxGeometry x="140" y="710" width="120" height="60" as="geometry" />
        </mxCell>
        <mxCell id="ptTr35JplMpbKP84stht-89" value="End Conversation" style="whiteSpace=wrap;html=1;rounded=1;glass=0;strokeWidth=1;shadow=0;" vertex="1" parent="1">
          <mxGeometry x="325" y="710" width="120" height="60" as="geometry" />
        </mxCell>
        <mxCell id="ptTr35JplMpbKP84stht-91" value="Talk to Medical Expert" style="whiteSpace=wrap;html=1;rounded=1;glass=0;strokeWidth=1;shadow=0;" vertex="1" parent="1">
          <mxGeometry x="530" y="710" width="120" height="60" as="geometry" />
        </mxCell>
      </root>
    </mxGraphModel>
  </diagram>
</mxfile>
